<mxfile host="Electron" modified="2023-09-15T03:08:53.532Z" agent="Mozilla/5.0 (Windows NT 10.0; Win64; x64) AppleWebKit/537.36 (KHTML, like Gecko) draw.io/21.6.5 Chrome/114.0.5735.243 Electron/25.3.1 Safari/537.36" etag="Za2p3hyDcB2Rk2msnW5r" version="21.6.5" type="device">
  <diagram name="PÃ¡gina-1" id="1cAuSnCWEbtZmqRNQ48H">
    <mxGraphModel dx="2410" dy="1088" grid="1" gridSize="10" guides="1" tooltips="1" connect="1" arrows="1" fold="1" page="1" pageScale="1" pageWidth="850" pageHeight="1100" math="0" shadow="0">
      <root>
        <mxCell id="0" />
        <mxCell id="1" parent="0" />
        <mxCell id="bkuleY80qBjZAKfsAdr7-6" style="edgeStyle=orthogonalEdgeStyle;rounded=0;orthogonalLoop=1;jettySize=auto;html=1;entryX=0;entryY=0.5;entryDx=0;entryDy=0;" parent="1" source="bkuleY80qBjZAKfsAdr7-1" target="bkuleY80qBjZAKfsAdr7-2" edge="1">
          <mxGeometry relative="1" as="geometry" />
        </mxCell>
        <mxCell id="bkuleY80qBjZAKfsAdr7-1" value="Clientes" style="rounded=0;whiteSpace=wrap;html=1;fillColor=#dae8fc;strokeColor=#6c8ebf;" parent="1" vertex="1">
          <mxGeometry x="120" y="209" width="120" height="60" as="geometry" />
        </mxCell>
        <mxCell id="bkuleY80qBjZAKfsAdr7-7" style="edgeStyle=orthogonalEdgeStyle;rounded=0;orthogonalLoop=1;jettySize=auto;html=1;entryX=0;entryY=0.5;entryDx=0;entryDy=0;" parent="1" source="bkuleY80qBjZAKfsAdr7-2" target="bkuleY80qBjZAKfsAdr7-5" edge="1">
          <mxGeometry relative="1" as="geometry" />
        </mxCell>
        <mxCell id="bkuleY80qBjZAKfsAdr7-2" value="reserva" style="rhombus;whiteSpace=wrap;html=1;fillColor=#fff2cc;strokeColor=#d6b656;" parent="1" vertex="1">
          <mxGeometry x="460" y="200" width="130" height="80" as="geometry" />
        </mxCell>
        <mxCell id="bkuleY80qBjZAKfsAdr7-5" value="Motocicleta" style="rounded=0;whiteSpace=wrap;html=1;fillColor=#dae8fc;strokeColor=#6c8ebf;" parent="1" vertex="1">
          <mxGeometry x="840" y="209" width="120" height="60" as="geometry" />
        </mxCell>
        <mxCell id="bkuleY80qBjZAKfsAdr7-8" value="DNI" style="ellipse;whiteSpace=wrap;html=1;" parent="1" vertex="1">
          <mxGeometry x="25" y="60" width="50" height="30" as="geometry" />
        </mxCell>
        <mxCell id="bkuleY80qBjZAKfsAdr7-9" value="" style="endArrow=none;html=1;rounded=0;entryX=1;entryY=0.5;entryDx=0;entryDy=0;exitX=0;exitY=0;exitDx=0;exitDy=0;" parent="1" source="bkuleY80qBjZAKfsAdr7-1" target="bkuleY80qBjZAKfsAdr7-8" edge="1">
          <mxGeometry width="50" height="50" relative="1" as="geometry">
            <mxPoint x="120" y="200" as="sourcePoint" />
            <mxPoint x="170" y="150" as="targetPoint" />
          </mxGeometry>
        </mxCell>
        <mxCell id="bkuleY80qBjZAKfsAdr7-10" value="nombre" style="ellipse;whiteSpace=wrap;html=1;" parent="1" vertex="1">
          <mxGeometry x="10" y="96" width="55" height="30" as="geometry" />
        </mxCell>
        <mxCell id="bkuleY80qBjZAKfsAdr7-11" value="papellido" style="ellipse;whiteSpace=wrap;html=1;" parent="1" vertex="1">
          <mxGeometry x="-55" y="96" width="55" height="30" as="geometry" />
        </mxCell>
        <mxCell id="bkuleY80qBjZAKfsAdr7-15" value="direccion" style="ellipse;whiteSpace=wrap;html=1;" parent="1" vertex="1">
          <mxGeometry x="-75" y="170" width="55" height="30" as="geometry" />
        </mxCell>
        <mxCell id="bkuleY80qBjZAKfsAdr7-16" value="mapellido" style="ellipse;whiteSpace=wrap;html=1;" parent="1" vertex="1">
          <mxGeometry x="-45" y="130" width="55" height="30" as="geometry" />
        </mxCell>
        <mxCell id="bkuleY80qBjZAKfsAdr7-17" value="" style="endArrow=none;html=1;rounded=0;entryX=1;entryY=0.5;entryDx=0;entryDy=0;exitX=0;exitY=0.25;exitDx=0;exitDy=0;" parent="1" source="bkuleY80qBjZAKfsAdr7-1" target="bkuleY80qBjZAKfsAdr7-10" edge="1">
          <mxGeometry width="50" height="50" relative="1" as="geometry">
            <mxPoint x="130" y="219" as="sourcePoint" />
            <mxPoint x="70" y="135" as="targetPoint" />
          </mxGeometry>
        </mxCell>
        <mxCell id="bkuleY80qBjZAKfsAdr7-18" value="" style="endArrow=none;html=1;rounded=0;entryX=1;entryY=0.5;entryDx=0;entryDy=0;exitX=0;exitY=0.25;exitDx=0;exitDy=0;" parent="1" source="bkuleY80qBjZAKfsAdr7-1" target="bkuleY80qBjZAKfsAdr7-11" edge="1">
          <mxGeometry width="50" height="50" relative="1" as="geometry">
            <mxPoint x="130" y="234" as="sourcePoint" />
            <mxPoint x="35" y="165" as="targetPoint" />
          </mxGeometry>
        </mxCell>
        <mxCell id="bkuleY80qBjZAKfsAdr7-19" value="" style="endArrow=none;html=1;rounded=0;entryX=1;entryY=0.5;entryDx=0;entryDy=0;exitX=0;exitY=0.5;exitDx=0;exitDy=0;" parent="1" source="bkuleY80qBjZAKfsAdr7-1" target="bkuleY80qBjZAKfsAdr7-16" edge="1">
          <mxGeometry width="50" height="50" relative="1" as="geometry">
            <mxPoint x="130" y="249" as="sourcePoint" />
            <mxPoint x="10" y="195" as="targetPoint" />
          </mxGeometry>
        </mxCell>
        <mxCell id="bkuleY80qBjZAKfsAdr7-20" value="" style="endArrow=none;html=1;rounded=0;entryX=1;entryY=0.5;entryDx=0;entryDy=0;exitX=0;exitY=0.5;exitDx=0;exitDy=0;" parent="1" source="bkuleY80qBjZAKfsAdr7-1" target="bkuleY80qBjZAKfsAdr7-15" edge="1">
          <mxGeometry width="50" height="50" relative="1" as="geometry">
            <mxPoint x="130" y="249" as="sourcePoint" />
            <mxPoint x="-20" y="225" as="targetPoint" />
          </mxGeometry>
        </mxCell>
        <mxCell id="bkuleY80qBjZAKfsAdr7-21" value="calle" style="ellipse;whiteSpace=wrap;html=1;" parent="1" vertex="1">
          <mxGeometry x="-145" y="140" width="55" height="30" as="geometry" />
        </mxCell>
        <mxCell id="bkuleY80qBjZAKfsAdr7-22" value="num" style="ellipse;whiteSpace=wrap;html=1;" parent="1" vertex="1">
          <mxGeometry x="-160" y="179" width="55" height="30" as="geometry" />
        </mxCell>
        <mxCell id="bkuleY80qBjZAKfsAdr7-23" value="" style="endArrow=none;html=1;rounded=0;entryX=1;entryY=0.5;entryDx=0;entryDy=0;exitX=0;exitY=0.5;exitDx=0;exitDy=0;" parent="1" source="bkuleY80qBjZAKfsAdr7-15" target="bkuleY80qBjZAKfsAdr7-21" edge="1">
          <mxGeometry width="50" height="50" relative="1" as="geometry">
            <mxPoint x="130" y="249" as="sourcePoint" />
            <mxPoint x="-35" y="264" as="targetPoint" />
          </mxGeometry>
        </mxCell>
        <mxCell id="bkuleY80qBjZAKfsAdr7-24" value="" style="endArrow=none;html=1;rounded=0;entryX=1;entryY=0.5;entryDx=0;entryDy=0;exitX=0;exitY=0.5;exitDx=0;exitDy=0;" parent="1" source="bkuleY80qBjZAKfsAdr7-15" target="bkuleY80qBjZAKfsAdr7-22" edge="1">
          <mxGeometry width="50" height="50" relative="1" as="geometry">
            <mxPoint x="-90" y="264" as="sourcePoint" />
            <mxPoint x="-105" y="255" as="targetPoint" />
          </mxGeometry>
        </mxCell>
        <mxCell id="bkuleY80qBjZAKfsAdr7-25" value="ciudad" style="ellipse;whiteSpace=wrap;html=1;" parent="1" vertex="1">
          <mxGeometry x="-100" y="209" width="55" height="30" as="geometry" />
        </mxCell>
        <mxCell id="bkuleY80qBjZAKfsAdr7-26" value="telefono" style="ellipse;whiteSpace=wrap;html=1;" parent="1" vertex="1">
          <mxGeometry x="-105" y="250" width="70" height="40" as="geometry" />
        </mxCell>
        <mxCell id="bkuleY80qBjZAKfsAdr7-27" value="telefono" style="ellipse;whiteSpace=wrap;html=1;" parent="1" vertex="1">
          <mxGeometry x="-97.5" y="255" width="55" height="30" as="geometry" />
        </mxCell>
        <mxCell id="bkuleY80qBjZAKfsAdr7-28" value="codigoCliente" style="ellipse;whiteSpace=wrap;html=1;fontStyle=4" parent="1" vertex="1">
          <mxGeometry x="-120" y="296" width="92.5" height="40" as="geometry" />
        </mxCell>
        <mxCell id="bkuleY80qBjZAKfsAdr7-29" value="" style="endArrow=none;html=1;rounded=0;entryX=1;entryY=0.5;entryDx=0;entryDy=0;exitX=0.007;exitY=0.654;exitDx=0;exitDy=0;exitPerimeter=0;" parent="1" source="bkuleY80qBjZAKfsAdr7-1" target="bkuleY80qBjZAKfsAdr7-25" edge="1">
          <mxGeometry width="50" height="50" relative="1" as="geometry">
            <mxPoint x="130" y="249" as="sourcePoint" />
            <mxPoint x="-35" y="264" as="targetPoint" />
          </mxGeometry>
        </mxCell>
        <mxCell id="bkuleY80qBjZAKfsAdr7-30" value="" style="endArrow=none;html=1;rounded=0;entryX=1;entryY=0.5;entryDx=0;entryDy=0;exitX=0;exitY=0.75;exitDx=0;exitDy=0;" parent="1" source="bkuleY80qBjZAKfsAdr7-1" target="bkuleY80qBjZAKfsAdr7-26" edge="1">
          <mxGeometry width="50" height="50" relative="1" as="geometry">
            <mxPoint x="140" y="259" as="sourcePoint" />
            <mxPoint x="-25" y="274" as="targetPoint" />
          </mxGeometry>
        </mxCell>
        <mxCell id="bkuleY80qBjZAKfsAdr7-31" value="" style="endArrow=none;html=1;rounded=0;entryX=1;entryY=0;entryDx=0;entryDy=0;exitX=0;exitY=1;exitDx=0;exitDy=0;" parent="1" source="bkuleY80qBjZAKfsAdr7-1" target="bkuleY80qBjZAKfsAdr7-28" edge="1">
          <mxGeometry width="50" height="50" relative="1" as="geometry">
            <mxPoint x="150" y="269" as="sourcePoint" />
            <mxPoint x="-15" y="284" as="targetPoint" />
          </mxGeometry>
        </mxCell>
        <mxCell id="bkuleY80qBjZAKfsAdr7-32" value="&lt;u&gt;matricula&lt;/u&gt;" style="ellipse;whiteSpace=wrap;html=1;" parent="1" vertex="1">
          <mxGeometry x="800" y="90" width="60" height="30" as="geometry" />
        </mxCell>
        <mxCell id="bkuleY80qBjZAKfsAdr7-34" value="numBastidor" style="ellipse;whiteSpace=wrap;html=1;" parent="1" vertex="1">
          <mxGeometry x="840" y="56" width="80" height="30" as="geometry" />
        </mxCell>
        <mxCell id="bkuleY80qBjZAKfsAdr7-38" value="color" style="ellipse;whiteSpace=wrap;html=1;" parent="1" vertex="1">
          <mxGeometry x="890" y="90" width="60" height="30" as="geometry" />
        </mxCell>
        <mxCell id="bkuleY80qBjZAKfsAdr7-39" value="marca" style="ellipse;whiteSpace=wrap;html=1;" parent="1" vertex="1">
          <mxGeometry x="950" y="60" width="60" height="30" as="geometry" />
        </mxCell>
        <mxCell id="bkuleY80qBjZAKfsAdr7-40" value="modelo" style="ellipse;whiteSpace=wrap;html=1;" parent="1" vertex="1">
          <mxGeometry x="1000" y="96" width="60" height="30" as="geometry" />
        </mxCell>
        <mxCell id="bkuleY80qBjZAKfsAdr7-45" value="precio" style="ellipse;whiteSpace=wrap;html=1;" parent="1" vertex="1">
          <mxGeometry x="310" y="86" width="50" height="30" as="geometry" />
        </mxCell>
        <mxCell id="bkuleY80qBjZAKfsAdr7-46" value="agencia" style="ellipse;whiteSpace=wrap;html=1;" parent="1" vertex="1">
          <mxGeometry x="375" y="90" width="50" height="30" as="geometry" />
        </mxCell>
        <mxCell id="bkuleY80qBjZAKfsAdr7-47" value="fechaInicio" style="ellipse;whiteSpace=wrap;html=1;fontStyle=4" parent="1" vertex="1">
          <mxGeometry x="330" y="140" width="65" height="40" as="geometry" />
        </mxCell>
        <mxCell id="bkuleY80qBjZAKfsAdr7-48" value="fechaReservacion" style="ellipse;whiteSpace=wrap;html=1;" parent="1" vertex="1">
          <mxGeometry x="345" y="20" width="115" height="40" as="geometry" />
        </mxCell>
        <mxCell id="bkuleY80qBjZAKfsAdr7-50" value="cliente" style="ellipse;whiteSpace=wrap;html=1;" parent="1" vertex="1">
          <mxGeometry x="440" y="60" width="50" height="30" as="geometry" />
        </mxCell>
        <mxCell id="bkuleY80qBjZAKfsAdr7-51" value="motoAlquilada" style="ellipse;whiteSpace=wrap;html=1;" parent="1" vertex="1">
          <mxGeometry x="465" y="20" width="90" height="30" as="geometry" />
        </mxCell>
        <mxCell id="bkuleY80qBjZAKfsAdr7-52" value="fechaFin" style="ellipse;whiteSpace=wrap;html=1;" parent="1" vertex="1">
          <mxGeometry x="520" y="60" width="70" height="30" as="geometry" />
        </mxCell>
        <mxCell id="bkuleY80qBjZAKfsAdr7-54" value="" style="endArrow=none;html=1;rounded=0;entryX=1;entryY=1;entryDx=0;entryDy=0;exitX=0.5;exitY=0;exitDx=0;exitDy=0;" parent="1" source="bkuleY80qBjZAKfsAdr7-2" target="bkuleY80qBjZAKfsAdr7-47" edge="1">
          <mxGeometry width="50" height="50" relative="1" as="geometry">
            <mxPoint x="535" y="194" as="sourcePoint" />
            <mxPoint x="490" y="60" as="targetPoint" />
          </mxGeometry>
        </mxCell>
        <mxCell id="bkuleY80qBjZAKfsAdr7-55" value="" style="endArrow=none;html=1;rounded=0;entryX=0.5;entryY=1;entryDx=0;entryDy=0;exitX=0.5;exitY=0;exitDx=0;exitDy=0;" parent="1" source="bkuleY80qBjZAKfsAdr7-2" target="bkuleY80qBjZAKfsAdr7-45" edge="1">
          <mxGeometry width="50" height="50" relative="1" as="geometry">
            <mxPoint x="535" y="210" as="sourcePoint" />
            <mxPoint x="378" y="124" as="targetPoint" />
          </mxGeometry>
        </mxCell>
        <mxCell id="bkuleY80qBjZAKfsAdr7-56" value="" style="endArrow=none;html=1;rounded=0;entryX=0.5;entryY=1;entryDx=0;entryDy=0;exitX=0.5;exitY=0;exitDx=0;exitDy=0;" parent="1" source="bkuleY80qBjZAKfsAdr7-2" target="bkuleY80qBjZAKfsAdr7-46" edge="1">
          <mxGeometry width="50" height="50" relative="1" as="geometry">
            <mxPoint x="535" y="210" as="sourcePoint" />
            <mxPoint x="413" y="90" as="targetPoint" />
          </mxGeometry>
        </mxCell>
        <mxCell id="bkuleY80qBjZAKfsAdr7-57" value="" style="endArrow=none;html=1;rounded=0;entryX=0.5;entryY=1;entryDx=0;entryDy=0;exitX=0.5;exitY=0;exitDx=0;exitDy=0;" parent="1" source="bkuleY80qBjZAKfsAdr7-2" target="bkuleY80qBjZAKfsAdr7-48" edge="1">
          <mxGeometry width="50" height="50" relative="1" as="geometry">
            <mxPoint x="590" y="190" as="sourcePoint" />
            <mxPoint x="518" y="40" as="targetPoint" />
          </mxGeometry>
        </mxCell>
        <mxCell id="bkuleY80qBjZAKfsAdr7-59" value="" style="endArrow=none;html=1;rounded=0;entryX=0.5;entryY=1;entryDx=0;entryDy=0;exitX=0.5;exitY=0;exitDx=0;exitDy=0;" parent="1" source="bkuleY80qBjZAKfsAdr7-2" target="bkuleY80qBjZAKfsAdr7-50" edge="1">
          <mxGeometry width="50" height="50" relative="1" as="geometry">
            <mxPoint x="535" y="210" as="sourcePoint" />
            <mxPoint x="545" y="40" as="targetPoint" />
          </mxGeometry>
        </mxCell>
        <mxCell id="bkuleY80qBjZAKfsAdr7-60" value="" style="endArrow=none;html=1;rounded=0;entryX=0.5;entryY=1;entryDx=0;entryDy=0;exitX=0.5;exitY=0;exitDx=0;exitDy=0;" parent="1" source="bkuleY80qBjZAKfsAdr7-2" target="bkuleY80qBjZAKfsAdr7-51" edge="1">
          <mxGeometry width="50" height="50" relative="1" as="geometry">
            <mxPoint x="535" y="210" as="sourcePoint" />
            <mxPoint x="603" y="45" as="targetPoint" />
          </mxGeometry>
        </mxCell>
        <mxCell id="bkuleY80qBjZAKfsAdr7-62" value="" style="endArrow=none;html=1;rounded=0;entryX=0.5;entryY=1;entryDx=0;entryDy=0;exitX=0.5;exitY=0;exitDx=0;exitDy=0;" parent="1" source="bkuleY80qBjZAKfsAdr7-2" target="bkuleY80qBjZAKfsAdr7-52" edge="1">
          <mxGeometry width="50" height="50" relative="1" as="geometry">
            <mxPoint x="530" y="200" as="sourcePoint" />
            <mxPoint x="630" y="87" as="targetPoint" />
          </mxGeometry>
        </mxCell>
        <mxCell id="bkuleY80qBjZAKfsAdr7-64" value="&lt;b&gt;&lt;font color=&quot;#0000cc&quot;&gt;N:M&lt;/font&gt;&lt;/b&gt;" style="text;html=1;strokeColor=none;fillColor=none;align=center;verticalAlign=middle;whiteSpace=wrap;rounded=0;" parent="1" vertex="1">
          <mxGeometry x="525" y="280" width="60" height="30" as="geometry" />
        </mxCell>
        <mxCell id="bkuleY80qBjZAKfsAdr7-65" value="(1...*)" style="text;html=1;strokeColor=none;fillColor=none;align=center;verticalAlign=middle;whiteSpace=wrap;rounded=0;" parent="1" vertex="1">
          <mxGeometry x="240" y="209" width="55" height="30" as="geometry" />
        </mxCell>
        <mxCell id="bkuleY80qBjZAKfsAdr7-66" value="(1...*)" style="text;html=1;strokeColor=none;fillColor=none;align=center;verticalAlign=middle;whiteSpace=wrap;rounded=0;" parent="1" vertex="1">
          <mxGeometry x="785" y="209" width="55" height="30" as="geometry" />
        </mxCell>
        <mxCell id="bkuleY80qBjZAKfsAdr7-68" style="edgeStyle=orthogonalEdgeStyle;rounded=0;orthogonalLoop=1;jettySize=auto;html=1;entryX=0.5;entryY=1;entryDx=0;entryDy=0;" parent="1" source="bkuleY80qBjZAKfsAdr7-67" target="bkuleY80qBjZAKfsAdr7-2" edge="1">
          <mxGeometry relative="1" as="geometry" />
        </mxCell>
        <mxCell id="73YylVkgMZfApf2n7xY5-13" style="edgeStyle=orthogonalEdgeStyle;rounded=0;orthogonalLoop=1;jettySize=auto;html=1;entryX=0;entryY=0.5;entryDx=0;entryDy=0;" parent="1" source="bkuleY80qBjZAKfsAdr7-67" target="73YylVkgMZfApf2n7xY5-7" edge="1">
          <mxGeometry relative="1" as="geometry" />
        </mxCell>
        <mxCell id="bkuleY80qBjZAKfsAdr7-67" value="agencia" style="rounded=0;whiteSpace=wrap;html=1;fillColor=#dae8fc;strokeColor=#6c8ebf;" parent="1" vertex="1">
          <mxGeometry x="465" y="490" width="120" height="60" as="geometry" />
        </mxCell>
        <mxCell id="bkuleY80qBjZAKfsAdr7-73" value="" style="endArrow=none;html=1;rounded=0;entryX=0.5;entryY=1;entryDx=0;entryDy=0;exitX=0.25;exitY=0;exitDx=0;exitDy=0;" parent="1" source="bkuleY80qBjZAKfsAdr7-5" target="bkuleY80qBjZAKfsAdr7-32" edge="1">
          <mxGeometry width="50" height="50" relative="1" as="geometry">
            <mxPoint x="535" y="210" as="sourcePoint" />
            <mxPoint x="630" y="80" as="targetPoint" />
          </mxGeometry>
        </mxCell>
        <mxCell id="bkuleY80qBjZAKfsAdr7-74" value="" style="endArrow=none;html=1;rounded=0;entryX=0.5;entryY=1;entryDx=0;entryDy=0;exitX=0.5;exitY=0;exitDx=0;exitDy=0;" parent="1" source="bkuleY80qBjZAKfsAdr7-5" target="bkuleY80qBjZAKfsAdr7-34" edge="1">
          <mxGeometry width="50" height="50" relative="1" as="geometry">
            <mxPoint x="880" y="219" as="sourcePoint" />
            <mxPoint x="840" y="130" as="targetPoint" />
          </mxGeometry>
        </mxCell>
        <mxCell id="bkuleY80qBjZAKfsAdr7-75" value="" style="endArrow=none;html=1;rounded=0;entryX=0;entryY=1;entryDx=0;entryDy=0;exitX=0.75;exitY=0;exitDx=0;exitDy=0;" parent="1" source="bkuleY80qBjZAKfsAdr7-5" target="bkuleY80qBjZAKfsAdr7-40" edge="1">
          <mxGeometry width="50" height="50" relative="1" as="geometry">
            <mxPoint x="910" y="219" as="sourcePoint" />
            <mxPoint x="890" y="96" as="targetPoint" />
          </mxGeometry>
        </mxCell>
        <mxCell id="bkuleY80qBjZAKfsAdr7-76" value="" style="endArrow=none;html=1;rounded=0;entryX=0.5;entryY=1;entryDx=0;entryDy=0;exitX=0.75;exitY=0;exitDx=0;exitDy=0;" parent="1" source="bkuleY80qBjZAKfsAdr7-5" target="bkuleY80qBjZAKfsAdr7-39" edge="1">
          <mxGeometry width="50" height="50" relative="1" as="geometry">
            <mxPoint x="940" y="219" as="sourcePoint" />
            <mxPoint x="1018" y="131" as="targetPoint" />
          </mxGeometry>
        </mxCell>
        <mxCell id="bkuleY80qBjZAKfsAdr7-77" value="" style="endArrow=none;html=1;rounded=0;entryX=0.5;entryY=1;entryDx=0;entryDy=0;exitX=0.5;exitY=0;exitDx=0;exitDy=0;" parent="1" source="bkuleY80qBjZAKfsAdr7-5" target="bkuleY80qBjZAKfsAdr7-38" edge="1">
          <mxGeometry width="50" height="50" relative="1" as="geometry">
            <mxPoint x="940" y="219" as="sourcePoint" />
            <mxPoint x="990" y="100" as="targetPoint" />
          </mxGeometry>
        </mxCell>
        <mxCell id="bkuleY80qBjZAKfsAdr7-78" value="(1...*)" style="text;html=1;strokeColor=none;fillColor=none;align=center;verticalAlign=middle;whiteSpace=wrap;rounded=0;" parent="1" vertex="1">
          <mxGeometry x="960" y="224" width="55" height="30" as="geometry" />
        </mxCell>
        <mxCell id="bkuleY80qBjZAKfsAdr7-79" value="(1...*)" style="text;html=1;strokeColor=none;fillColor=none;align=center;verticalAlign=middle;whiteSpace=wrap;rounded=0;" parent="1" vertex="1">
          <mxGeometry x="525" y="460" width="55" height="30" as="geometry" />
        </mxCell>
        <mxCell id="bkuleY80qBjZAKfsAdr7-80" value="&lt;u&gt;id&lt;/u&gt;" style="ellipse;whiteSpace=wrap;html=1;" parent="1" vertex="1">
          <mxGeometry x="370" y="450" width="50" height="30" as="geometry" />
        </mxCell>
        <mxCell id="bkuleY80qBjZAKfsAdr7-81" value="nombre" style="ellipse;whiteSpace=wrap;html=1;" parent="1" vertex="1">
          <mxGeometry x="315" y="470" width="55" height="30" as="geometry" />
        </mxCell>
        <mxCell id="bkuleY80qBjZAKfsAdr7-82" value="direccion" style="ellipse;whiteSpace=wrap;html=1;" parent="1" vertex="1">
          <mxGeometry x="280" y="505" width="55" height="30" as="geometry" />
        </mxCell>
        <mxCell id="bkuleY80qBjZAKfsAdr7-83" value="telefono" style="ellipse;whiteSpace=wrap;html=1;" parent="1" vertex="1">
          <mxGeometry x="272.5" y="540" width="70" height="40" as="geometry" />
        </mxCell>
        <mxCell id="bkuleY80qBjZAKfsAdr7-84" value="telefono" style="ellipse;whiteSpace=wrap;html=1;" parent="1" vertex="1">
          <mxGeometry x="280" y="545" width="55" height="30" as="geometry" />
        </mxCell>
        <mxCell id="bkuleY80qBjZAKfsAdr7-87" value="calle" style="ellipse;whiteSpace=wrap;html=1;" parent="1" vertex="1">
          <mxGeometry x="217.5" y="480" width="55" height="30" as="geometry" />
        </mxCell>
        <mxCell id="bkuleY80qBjZAKfsAdr7-88" value="num" style="ellipse;whiteSpace=wrap;html=1;" parent="1" vertex="1">
          <mxGeometry x="180" y="505" width="55" height="30" as="geometry" />
        </mxCell>
        <mxCell id="bkuleY80qBjZAKfsAdr7-89" value="poblacion" style="ellipse;whiteSpace=wrap;html=1;" parent="1" vertex="1">
          <mxGeometry x="180" y="540" width="55" height="30" as="geometry" />
        </mxCell>
        <mxCell id="bkuleY80qBjZAKfsAdr7-90" value="" style="endArrow=none;html=1;rounded=0;entryX=0;entryY=0.5;entryDx=0;entryDy=0;exitX=1;exitY=1;exitDx=0;exitDy=0;" parent="1" source="bkuleY80qBjZAKfsAdr7-80" target="bkuleY80qBjZAKfsAdr7-67" edge="1">
          <mxGeometry width="50" height="50" relative="1" as="geometry">
            <mxPoint x="130" y="279" as="sourcePoint" />
            <mxPoint x="-31" y="312" as="targetPoint" />
          </mxGeometry>
        </mxCell>
        <mxCell id="bkuleY80qBjZAKfsAdr7-91" value="" style="endArrow=none;html=1;rounded=0;entryX=0;entryY=0.5;entryDx=0;entryDy=0;exitX=1;exitY=0.5;exitDx=0;exitDy=0;" parent="1" source="bkuleY80qBjZAKfsAdr7-81" target="bkuleY80qBjZAKfsAdr7-67" edge="1">
          <mxGeometry width="50" height="50" relative="1" as="geometry">
            <mxPoint x="423" y="486" as="sourcePoint" />
            <mxPoint x="475" y="530" as="targetPoint" />
          </mxGeometry>
        </mxCell>
        <mxCell id="bkuleY80qBjZAKfsAdr7-92" value="" style="endArrow=none;html=1;rounded=0;entryX=0;entryY=0.5;entryDx=0;entryDy=0;exitX=1;exitY=0.5;exitDx=0;exitDy=0;" parent="1" source="bkuleY80qBjZAKfsAdr7-82" target="bkuleY80qBjZAKfsAdr7-67" edge="1">
          <mxGeometry width="50" height="50" relative="1" as="geometry">
            <mxPoint x="380" y="495" as="sourcePoint" />
            <mxPoint x="475" y="530" as="targetPoint" />
          </mxGeometry>
        </mxCell>
        <mxCell id="bkuleY80qBjZAKfsAdr7-93" value="" style="endArrow=none;html=1;rounded=0;entryX=0;entryY=0.5;entryDx=0;entryDy=0;exitX=1;exitY=0.5;exitDx=0;exitDy=0;" parent="1" source="bkuleY80qBjZAKfsAdr7-83" target="bkuleY80qBjZAKfsAdr7-67" edge="1">
          <mxGeometry width="50" height="50" relative="1" as="geometry">
            <mxPoint x="345" y="530" as="sourcePoint" />
            <mxPoint x="475" y="530" as="targetPoint" />
          </mxGeometry>
        </mxCell>
        <mxCell id="bkuleY80qBjZAKfsAdr7-94" value="" style="endArrow=none;html=1;rounded=0;entryX=0;entryY=0.5;entryDx=0;entryDy=0;exitX=0.5;exitY=1;exitDx=0;exitDy=0;" parent="1" source="bkuleY80qBjZAKfsAdr7-87" target="bkuleY80qBjZAKfsAdr7-82" edge="1">
          <mxGeometry width="50" height="50" relative="1" as="geometry">
            <mxPoint x="353" y="570" as="sourcePoint" />
            <mxPoint x="475" y="530" as="targetPoint" />
          </mxGeometry>
        </mxCell>
        <mxCell id="bkuleY80qBjZAKfsAdr7-96" value="" style="endArrow=none;html=1;rounded=0;entryX=0;entryY=0.5;entryDx=0;entryDy=0;exitX=1;exitY=0.5;exitDx=0;exitDy=0;" parent="1" source="bkuleY80qBjZAKfsAdr7-88" target="bkuleY80qBjZAKfsAdr7-82" edge="1">
          <mxGeometry width="50" height="50" relative="1" as="geometry">
            <mxPoint x="255" y="520" as="sourcePoint" />
            <mxPoint x="290" y="530" as="targetPoint" />
          </mxGeometry>
        </mxCell>
        <mxCell id="bkuleY80qBjZAKfsAdr7-97" value="" style="endArrow=none;html=1;rounded=0;entryX=0;entryY=0.5;entryDx=0;entryDy=0;exitX=1;exitY=0.5;exitDx=0;exitDy=0;" parent="1" source="bkuleY80qBjZAKfsAdr7-89" target="bkuleY80qBjZAKfsAdr7-82" edge="1">
          <mxGeometry width="50" height="50" relative="1" as="geometry">
            <mxPoint x="235" y="525" as="sourcePoint" />
            <mxPoint x="290" y="530" as="targetPoint" />
          </mxGeometry>
        </mxCell>
        <mxCell id="bkuleY80qBjZAKfsAdr7-116" style="edgeStyle=orthogonalEdgeStyle;rounded=0;orthogonalLoop=1;jettySize=auto;html=1;" parent="1" source="bkuleY80qBjZAKfsAdr7-101" target="bkuleY80qBjZAKfsAdr7-114" edge="1">
          <mxGeometry relative="1" as="geometry" />
        </mxCell>
        <mxCell id="bkuleY80qBjZAKfsAdr7-133" style="edgeStyle=orthogonalEdgeStyle;rounded=0;orthogonalLoop=1;jettySize=auto;html=1;entryX=0.5;entryY=1;entryDx=0;entryDy=0;" parent="1" source="bkuleY80qBjZAKfsAdr7-101" target="bkuleY80qBjZAKfsAdr7-131" edge="1">
          <mxGeometry relative="1" as="geometry" />
        </mxCell>
        <mxCell id="bkuleY80qBjZAKfsAdr7-101" value="garaje" style="rounded=0;whiteSpace=wrap;html=1;fillColor=#dae8fc;strokeColor=#6c8ebf;" parent="1" vertex="1">
          <mxGeometry x="1140" y="740" width="120" height="60" as="geometry" />
        </mxCell>
        <mxCell id="bkuleY80qBjZAKfsAdr7-105" value="nombreGaraje" style="ellipse;whiteSpace=wrap;html=1;fontStyle=4" parent="1" vertex="1">
          <mxGeometry x="940" y="710" width="115" height="30" as="geometry" />
        </mxCell>
        <mxCell id="bkuleY80qBjZAKfsAdr7-106" value="direccion" style="ellipse;whiteSpace=wrap;html=1;" parent="1" vertex="1">
          <mxGeometry x="990" y="755" width="55" height="30" as="geometry" />
        </mxCell>
        <mxCell id="bkuleY80qBjZAKfsAdr7-107" value="" style="endArrow=none;html=1;rounded=0;entryX=0;entryY=0.5;entryDx=0;entryDy=0;exitX=1;exitY=0.5;exitDx=0;exitDy=0;" parent="1" source="bkuleY80qBjZAKfsAdr7-105" target="bkuleY80qBjZAKfsAdr7-101" edge="1">
          <mxGeometry width="50" height="50" relative="1" as="geometry">
            <mxPoint x="724" y="926" as="sourcePoint" />
            <mxPoint x="766" y="960" as="targetPoint" />
          </mxGeometry>
        </mxCell>
        <mxCell id="bkuleY80qBjZAKfsAdr7-108" value="" style="endArrow=none;html=1;rounded=0;entryX=0;entryY=0.5;entryDx=0;entryDy=0;exitX=1;exitY=0.5;exitDx=0;exitDy=0;" parent="1" source="bkuleY80qBjZAKfsAdr7-106" target="bkuleY80qBjZAKfsAdr7-101" edge="1">
          <mxGeometry width="50" height="50" relative="1" as="geometry">
            <mxPoint x="681" y="935" as="sourcePoint" />
            <mxPoint x="766" y="960" as="targetPoint" />
          </mxGeometry>
        </mxCell>
        <mxCell id="73YylVkgMZfApf2n7xY5-1" style="edgeStyle=orthogonalEdgeStyle;rounded=0;orthogonalLoop=1;jettySize=auto;html=1;entryX=0.5;entryY=0;entryDx=0;entryDy=0;" parent="1" source="bkuleY80qBjZAKfsAdr7-114" target="bkuleY80qBjZAKfsAdr7-115" edge="1">
          <mxGeometry relative="1" as="geometry" />
        </mxCell>
        <mxCell id="bkuleY80qBjZAKfsAdr7-114" value="pertenece" style="rhombus;whiteSpace=wrap;html=1;fillColor=#fff2cc;strokeColor=#d6b656;" parent="1" vertex="1">
          <mxGeometry x="1135" y="930" width="130" height="80" as="geometry" />
        </mxCell>
        <mxCell id="bkuleY80qBjZAKfsAdr7-115" value="ciudad" style="rounded=0;whiteSpace=wrap;html=1;fillColor=#dae8fc;strokeColor=#6c8ebf;" parent="1" vertex="1">
          <mxGeometry x="1140" y="1145" width="120" height="60" as="geometry" />
        </mxCell>
        <mxCell id="bkuleY80qBjZAKfsAdr7-119" value="&lt;u&gt;nombreCiudad&lt;/u&gt;" style="ellipse;whiteSpace=wrap;html=1;" parent="1" vertex="1">
          <mxGeometry x="1400" y="1220" width="105" height="30" as="geometry" />
        </mxCell>
        <mxCell id="bkuleY80qBjZAKfsAdr7-120" value="codigoPostal" style="ellipse;whiteSpace=wrap;html=1;" parent="1" vertex="1">
          <mxGeometry x="1340" y="1250" width="85" height="30" as="geometry" />
        </mxCell>
        <mxCell id="bkuleY80qBjZAKfsAdr7-121" value="" style="endArrow=none;html=1;rounded=0;entryX=0;entryY=0.5;entryDx=0;entryDy=0;exitX=1;exitY=1;exitDx=0;exitDy=0;" parent="1" source="bkuleY80qBjZAKfsAdr7-115" target="bkuleY80qBjZAKfsAdr7-119" edge="1">
          <mxGeometry width="50" height="50" relative="1" as="geometry">
            <mxPoint x="1304.999999999989" y="1225" as="sourcePoint" />
            <mxPoint x="1400" y="1260" as="targetPoint" />
          </mxGeometry>
        </mxCell>
        <mxCell id="bkuleY80qBjZAKfsAdr7-122" value="" style="endArrow=none;html=1;rounded=0;entryX=0;entryY=0;entryDx=0;entryDy=0;exitX=0.75;exitY=1;exitDx=0;exitDy=0;" parent="1" source="bkuleY80qBjZAKfsAdr7-115" target="bkuleY80qBjZAKfsAdr7-120" edge="1">
          <mxGeometry width="50" height="50" relative="1" as="geometry">
            <mxPoint x="1410" y="1255" as="sourcePoint" />
            <mxPoint x="1495" y="1280" as="targetPoint" />
          </mxGeometry>
        </mxCell>
        <mxCell id="bkuleY80qBjZAKfsAdr7-124" value="provincia" style="ellipse;whiteSpace=wrap;html=1;" parent="1" vertex="1">
          <mxGeometry x="1400" y="1180" width="55" height="30" as="geometry" />
        </mxCell>
        <mxCell id="bkuleY80qBjZAKfsAdr7-125" value="numHabitantes" style="ellipse;whiteSpace=wrap;html=1;" parent="1" vertex="1">
          <mxGeometry x="1385" y="1140" width="85" height="30" as="geometry" />
        </mxCell>
        <mxCell id="bkuleY80qBjZAKfsAdr7-126" value="" style="endArrow=none;html=1;rounded=0;entryX=0;entryY=0.5;entryDx=0;entryDy=0;exitX=1;exitY=0.5;exitDx=0;exitDy=0;" parent="1" source="bkuleY80qBjZAKfsAdr7-115" target="bkuleY80qBjZAKfsAdr7-124" edge="1">
          <mxGeometry width="50" height="50" relative="1" as="geometry">
            <mxPoint x="1325" y="1215" as="sourcePoint" />
            <mxPoint x="1410" y="1245" as="targetPoint" />
          </mxGeometry>
        </mxCell>
        <mxCell id="bkuleY80qBjZAKfsAdr7-127" value="" style="endArrow=none;html=1;rounded=0;entryX=0;entryY=0.5;entryDx=0;entryDy=0;exitX=1;exitY=0.25;exitDx=0;exitDy=0;" parent="1" source="bkuleY80qBjZAKfsAdr7-115" target="bkuleY80qBjZAKfsAdr7-125" edge="1">
          <mxGeometry width="50" height="50" relative="1" as="geometry">
            <mxPoint x="1325" y="1200" as="sourcePoint" />
            <mxPoint x="1410" y="1205" as="targetPoint" />
          </mxGeometry>
        </mxCell>
        <mxCell id="bkuleY80qBjZAKfsAdr7-128" value="(1...*)" style="text;html=1;strokeColor=none;fillColor=none;align=center;verticalAlign=middle;whiteSpace=wrap;rounded=0;" parent="1" vertex="1">
          <mxGeometry x="1205" y="800" width="55" height="30" as="geometry" />
        </mxCell>
        <mxCell id="bkuleY80qBjZAKfsAdr7-129" value="(1...1)" style="text;html=1;strokeColor=none;fillColor=none;align=center;verticalAlign=middle;whiteSpace=wrap;rounded=0;" parent="1" vertex="1">
          <mxGeometry x="1205" y="1115" width="55" height="30" as="geometry" />
        </mxCell>
        <mxCell id="bkuleY80qBjZAKfsAdr7-130" value="&lt;font color=&quot;#0000cc&quot;&gt;&lt;b&gt;1:N&lt;/b&gt;&lt;/font&gt;" style="text;html=1;strokeColor=none;fillColor=none;align=center;verticalAlign=middle;whiteSpace=wrap;rounded=0;" parent="1" vertex="1">
          <mxGeometry x="1268" y="955" width="60" height="30" as="geometry" />
        </mxCell>
        <mxCell id="bkuleY80qBjZAKfsAdr7-132" style="edgeStyle=orthogonalEdgeStyle;rounded=0;orthogonalLoop=1;jettySize=auto;html=1;entryX=1;entryY=0.75;entryDx=0;entryDy=0;" parent="1" source="bkuleY80qBjZAKfsAdr7-131" target="bkuleY80qBjZAKfsAdr7-5" edge="1">
          <mxGeometry relative="1" as="geometry">
            <mxPoint x="1122.5" y="269" as="targetPoint" />
          </mxGeometry>
        </mxCell>
        <mxCell id="bkuleY80qBjZAKfsAdr7-131" value="almacena" style="rhombus;whiteSpace=wrap;html=1;fillColor=#fff2cc;strokeColor=#d6b656;" parent="1" vertex="1">
          <mxGeometry x="1135" y="455" width="130" height="80" as="geometry" />
        </mxCell>
        <mxCell id="bkuleY80qBjZAKfsAdr7-134" value="&lt;font color=&quot;#0000cc&quot;&gt;&lt;b&gt;1:N&lt;/b&gt;&lt;/font&gt;" style="text;html=1;strokeColor=none;fillColor=none;align=center;verticalAlign=middle;whiteSpace=wrap;rounded=0;" parent="1" vertex="1">
          <mxGeometry x="1265" y="480" width="60" height="30" as="geometry" />
        </mxCell>
        <mxCell id="bkuleY80qBjZAKfsAdr7-136" value="(1...*)" style="text;html=1;strokeColor=none;fillColor=none;align=center;verticalAlign=middle;whiteSpace=wrap;rounded=0;" parent="1" vertex="1">
          <mxGeometry x="872.5" y="269" width="55" height="30" as="geometry" />
        </mxCell>
        <mxCell id="73YylVkgMZfApf2n7xY5-5" value="fechaIngreso" style="ellipse;whiteSpace=wrap;html=1;" parent="1" vertex="1">
          <mxGeometry x="1292.5" y="430" width="115" height="30" as="geometry" />
        </mxCell>
        <mxCell id="73YylVkgMZfApf2n7xY5-6" value="" style="endArrow=none;html=1;rounded=0;entryX=0.819;entryY=0.281;entryDx=0;entryDy=0;exitX=0;exitY=0.5;exitDx=0;exitDy=0;entryPerimeter=0;" parent="1" source="73YylVkgMZfApf2n7xY5-5" target="bkuleY80qBjZAKfsAdr7-131" edge="1">
          <mxGeometry width="50" height="50" relative="1" as="geometry">
            <mxPoint x="1127" y="725" as="sourcePoint" />
            <mxPoint x="1150" y="780" as="targetPoint" />
          </mxGeometry>
        </mxCell>
        <mxCell id="73YylVkgMZfApf2n7xY5-9" style="edgeStyle=orthogonalEdgeStyle;rounded=0;orthogonalLoop=1;jettySize=auto;html=1;entryX=0.25;entryY=1;entryDx=0;entryDy=0;" parent="1" source="73YylVkgMZfApf2n7xY5-7" target="bkuleY80qBjZAKfsAdr7-5" edge="1">
          <mxGeometry relative="1" as="geometry" />
        </mxCell>
        <mxCell id="73YylVkgMZfApf2n7xY5-7" value="adquiere" style="rhombus;whiteSpace=wrap;html=1;fillColor=#fff2cc;strokeColor=#d6b656;" parent="1" vertex="1">
          <mxGeometry x="680" y="480" width="130" height="80" as="geometry" />
        </mxCell>
        <mxCell id="73YylVkgMZfApf2n7xY5-14" value="(1...1)" style="text;html=1;strokeColor=none;fillColor=none;align=center;verticalAlign=middle;whiteSpace=wrap;rounded=0;" parent="1" vertex="1">
          <mxGeometry x="590" y="520" width="55" height="30" as="geometry" />
        </mxCell>
        <mxCell id="0RZeVRSIlNlMtTpL2NQf-1" value="&lt;font color=&quot;#0000cc&quot;&gt;&lt;b&gt;1:N&lt;/b&gt;&lt;/font&gt;" style="text;html=1;strokeColor=none;fillColor=none;align=center;verticalAlign=middle;whiteSpace=wrap;rounded=0;" vertex="1" parent="1">
          <mxGeometry x="715" y="440" width="60" height="30" as="geometry" />
        </mxCell>
      </root>
    </mxGraphModel>
  </diagram>
</mxfile>
